<svg width="1024" height="186" viewBox="0 0 1024 186" fill="none" xmlns="http://www.w3.org/2000/svg">
<path d="M534.88 61.6231H422.071V47.3626H506.997V17.7771H432.714V3.5166H524.45V47.3626H534.88V61.6231ZM442.292 116.324C439.099 116.324 436.545 115.686 435.055 114.409C433.565 113.132 432.714 110.79 432.714 107.172V72.691H524.45V116.537H442.292V116.324ZM450.167 86.7388V102.064H506.997V86.7388H450.167Z" fill="white"/>
<path d="M600.648 120.155C595.327 120.155 590.432 119.73 585.749 119.091C581.067 118.453 577.023 117.176 573.404 115.473C569.786 113.77 567.019 111.429 565.103 108.449C562.975 105.682 562.123 102.064 562.123 97.5939C562.123 91.8471 564.039 87.1646 568.083 83.5462V68.4342H544.457V54.3865H657.265V68.6471H633.852V84.1847C635.555 85.8875 636.832 87.8031 637.684 89.9315C638.535 92.06 638.961 94.6141 638.961 97.5939C638.961 101.851 637.896 105.469 635.981 108.449C634.065 111.216 631.298 113.557 627.893 115.473C624.487 117.176 620.443 118.453 615.76 119.091C610.865 119.73 605.97 120.155 600.648 120.155ZM600.648 48.8525C595.327 48.8525 590.645 48.4269 585.962 47.3626C581.492 46.2984 577.661 44.8085 574.255 42.8929C571.063 40.7645 568.509 38.4231 566.593 35.2305C564.677 32.2507 563.826 28.6323 563.826 24.5883C563.826 20.5442 564.677 16.9259 566.593 13.946C568.509 10.9662 571.063 8.41208 574.255 6.49648C577.448 4.58088 581.279 3.09096 585.962 2.02674C590.432 0.962515 595.327 0.536865 600.648 0.536865C605.97 0.536865 610.652 0.962515 615.335 2.02674C619.805 3.09096 623.636 4.58088 627.041 6.49648C630.234 8.41208 633.001 10.9662 634.704 13.946C636.619 16.9259 637.471 20.5442 637.471 24.5883C637.471 28.6323 636.619 32.2507 634.704 35.2305C632.788 38.2103 630.234 40.7645 627.041 42.8929C623.849 45.0213 619.805 46.5113 615.335 47.3626C610.865 48.4269 605.97 48.8525 600.648 48.8525ZM600.648 106.108C602.99 106.108 605.331 106.108 607.885 105.895C610.439 105.682 612.568 105.256 614.483 104.618C616.399 103.979 618.102 103.128 619.379 102.064C620.656 100.999 621.294 99.5095 621.294 97.5939C621.294 95.6783 620.656 94.1884 619.379 93.1242C618.102 92.06 616.399 90.9957 614.483 90.57C612.568 89.9315 610.226 89.5058 607.885 89.293C605.331 89.0801 602.99 89.0801 600.648 89.0801C598.307 89.0801 595.753 89.0801 593.199 89.293C590.645 89.5058 588.516 89.9315 586.388 90.57C584.259 91.2086 582.769 92.06 581.279 93.1242C580.002 94.1884 579.364 95.8911 579.364 97.5939C579.364 99.5095 580.002 100.999 581.279 102.064C582.557 103.128 584.259 103.979 586.388 104.618C588.516 105.256 590.645 105.682 593.199 105.895C595.966 106.108 598.307 106.108 600.648 106.108ZM600.648 35.0176C602.99 35.0176 605.331 34.8048 607.672 34.592C610.014 34.1663 612.142 33.7406 614.058 32.8892C615.973 32.0378 617.463 30.9736 618.527 29.6965C619.592 28.4194 620.23 26.7167 620.23 24.8011C620.23 22.8855 619.592 21.1827 618.527 19.9057C617.463 18.6286 615.973 17.5644 614.058 16.713C612.142 15.8616 610.014 15.436 607.672 15.0103C605.331 14.5846 602.99 14.5845 600.648 14.5845C598.307 14.5845 595.966 14.7974 593.624 15.0103C591.283 15.436 589.368 15.8616 587.452 16.713C585.536 17.5644 584.046 18.6286 582.982 19.9057C581.918 21.1827 581.279 22.8855 581.279 24.8011C581.279 26.7167 581.918 28.4194 582.982 29.6965C584.046 30.9736 585.536 32.0378 587.452 32.8892C589.368 33.7406 591.283 34.1663 593.624 34.592C595.966 34.8048 598.307 35.0176 600.648 35.0176ZM600.648 75.2452C603.415 75.2452 605.969 75.2452 608.736 75.4581C611.291 75.6709 613.845 75.8837 616.186 76.3094V68.4342H585.323V76.0966C590.219 75.4581 595.327 75.2452 600.648 75.2452Z" fill="white"/>
<path d="M717.076 6.49681C716.437 13.5207 715.586 20.1188 714.309 26.2913C713.245 32.4638 711.755 38.4235 709.839 44.1703C714.309 52.4712 719.417 60.1336 725.164 67.3703C730.911 74.607 736.87 81.2052 743.469 86.952L732.826 99.0841C727.505 94.1887 721.971 88.6548 716.863 82.4823C711.542 76.3098 706.859 69.7116 702.602 62.6877C695.366 76.7355 685.149 89.719 671.74 101.638L659.82 90.9961C666.206 84.8236 671.527 78.6511 676.209 72.6914C680.892 66.519 684.723 60.1336 687.916 53.3226C691.109 46.5116 693.663 39.062 695.578 31.1868C697.494 23.3115 698.984 14.3721 700.048 4.58123L717.076 6.49681ZM772.203 116.325H754.962V54.5997H733.891V40.3391H754.962V1.81421H772.203V116.325Z" fill="white"/>
<path d="M856.064 3.517V99.0841H803.491C800.298 99.0841 797.744 98.4456 796.254 97.1686C794.765 95.8915 793.913 93.5502 793.913 89.9319V3.517H811.366V39.2748H838.611V3.517H856.064ZM838.611 84.8235V53.5354H811.366V84.8235H838.611ZM894.589 116.325H877.349V1.81421H894.589V116.325Z" fill="white"/>
<path d="M1024 106.32H911.191V92.0599H1024V106.32ZM980.792 6.4964C979.728 13.0946 978.025 19.4799 975.258 25.6524C977.812 29.0579 980.792 32.4634 984.197 35.8689C987.603 39.2744 991.434 42.4671 995.265 45.6598C999.31 48.8524 1003.35 51.6194 1007.82 54.3864C1012.08 57.1534 1016.55 59.2818 1021.02 61.1974L1011.65 73.9681C1007.61 72.0525 1003.57 69.924 999.309 67.3699C995.053 64.8158 991.221 62.0488 987.177 59.069C983.346 56.0892 979.515 52.8965 976.109 49.491C972.704 46.0855 969.724 42.8928 967.17 39.4873C961.849 46.9368 955.463 53.7479 948.014 59.7075C940.351 65.88 931.837 71.2011 922.259 75.6708L913.32 63.5387C919.705 60.346 925.878 56.5149 931.625 52.4708C937.371 48.2139 942.48 43.7442 946.949 38.8488C951.419 33.9534 955.25 28.6322 958.23 22.8854C961.21 17.1386 963.339 11.179 964.616 4.58081L980.792 6.4964Z" fill="white"/>
<path d="M0.212859 44.8093H113.873V73.5433H71.7291V116.538H42.1435V73.5433H0V44.8093H0.212859Z" fill="white"/>
<path d="M71.943 1.81421H42.3574V34.8051H71.943V1.81421Z" fill="white"/>
<path d="M221.785 1.81421V44.8088H160.06V1.81421H132.177V116.537H160.06V71.4144H221.785V116.537H249.668V1.81421H221.785Z" fill="white"/>
<path d="M295.644 72.9051H357.795V44.8096H267.974V116.325H372.907V90.784H295.644V72.9051Z" fill="white"/>
<path d="M372.907 2.02759H267.974V27.1433H372.907V2.02759Z" fill="white"/>
<path d="M249.666 164.002H241.578V184.222H236.044V164.002H227.956V159.106H249.879V164.002H249.666Z" fill="white"/>
<path d="M279.891 159.106V184.222H274.357V174.006H263.289V184.222H257.755V159.106H263.289V169.11H274.357V159.106H279.891Z" fill="white"/>
<path d="M289.255 159.106H307.985V164.002H295.002V169.11H306.921V174.006H295.002V179.327H308.411V184.222H289.468V159.106H289.255Z" fill="white"/>
<path d="M330.548 159.106H349.065V164.002H336.295V169.749H347.788V174.644H336.295V184.222H330.761V159.106H330.548Z" fill="white"/>
<path d="M362.688 159.106V184.222H357.154V159.106H362.688Z" fill="white"/>
<path d="M372.053 159.107H376.735L389.293 174.219V158.895H394.827V184.01H390.145L377.587 168.898V184.223H372.053V159.107Z" fill="white"/>
<path d="M419.731 179.327H409.94L408.237 184.222H402.49L412.281 159.106H418.028L427.819 184.222H421.646L419.731 179.327ZM418.028 174.431L414.835 165.705L411.643 174.431H418.028Z" fill="white"/>
<path d="M435.269 159.107H439.951L452.509 174.219V158.895H458.043V184.01H453.36L440.803 168.898V184.223H435.269V159.107Z" fill="white"/>
<path d="M466.344 171.665C466.344 164.002 472.091 158.468 479.753 158.468C486.564 158.468 491.247 162.725 492.311 168.046H486.564C485.926 165.705 483.371 163.789 479.753 163.789C475.283 163.789 471.878 167.195 471.878 171.878C471.878 176.56 475.283 179.966 479.753 179.966C483.371 179.966 486.351 177.624 486.777 175.283H492.524C491.672 180.391 486.777 185.074 479.753 185.074C472.091 184.861 466.344 179.327 466.344 171.665Z" fill="white"/>
<path d="M506.358 159.106V184.222H500.824V159.106H506.358Z" fill="white"/>
<path d="M531.263 179.327H521.472L519.769 184.222H514.022L523.813 159.106H529.56L539.351 184.222H533.179L531.263 179.327ZM529.56 174.431L526.367 165.705L523.175 174.431H529.56Z" fill="white"/>
<path d="M552.332 159.106V179.327H564.89V184.222H546.798V159.106H552.332Z" fill="white"/>
<path d="M606.183 166.769H600.436C600.011 164.641 598.521 163.151 595.754 163.151C593.199 163.151 591.709 164.215 591.709 165.705C591.709 167.621 593.625 168.259 598.521 169.324C604.267 170.601 606.396 173.368 606.396 177.199C606.396 182.094 601.926 184.861 596.179 184.861C590.007 184.861 585.537 181.456 585.111 176.135H590.858C591.071 178.476 593.199 180.179 596.392 180.179C598.733 180.179 600.436 179.114 600.436 177.412C600.436 175.496 598.733 174.645 594.264 173.793C588.73 172.729 585.75 170.601 585.75 165.705C585.75 161.235 590.22 158.469 595.966 158.469C601.713 158.469 605.757 161.874 606.183 166.769Z" fill="white"/>
<path d="M614.482 159.106H633.213V164.002H620.229V169.11H632.149V174.006H620.229V179.327H633.639V184.222H614.695V159.106H614.482Z" fill="white"/>
<path d="M657.053 184.222L652.157 176.347H647.687V184.222H642.153V159.106H652.37C658.755 159.106 662.586 162.512 662.586 167.62C662.586 171.026 660.884 173.793 657.904 175.07L663.651 184.009H657.053V184.222ZM647.687 171.451H651.944C654.924 171.451 656.627 170.174 656.627 167.833C656.627 165.492 654.924 164.215 651.944 164.215H647.687V171.451Z" fill="white"/>
<path d="M694.514 159.106L684.51 184.222H678.551L668.547 159.106H674.932L681.743 177.624L688.554 159.106H694.514Z" fill="white"/>
<path d="M707.71 159.106V184.222H702.176V159.106H707.71Z" fill="white"/>
<path d="M716.012 171.665C716.012 164.002 721.759 158.469 729.421 158.469C736.232 158.469 740.915 162.725 741.979 168.047H736.232C735.594 165.705 733.039 163.79 729.421 163.79C724.951 163.79 721.546 167.195 721.546 171.878C721.546 176.56 724.951 179.966 729.421 179.966C733.039 179.966 736.019 177.624 736.445 175.283H742.192C741.34 180.391 736.445 185.074 729.421 185.074C721.759 184.861 716.012 179.327 716.012 171.665Z" fill="white"/>
<path d="M750.492 159.106H769.223V164.002H756.026V169.11H767.945V174.006H756.026V179.327H769.435V184.222H750.492V159.106Z" fill="white"/>
<path d="M797.959 166.769H792.212C791.786 164.641 790.296 163.151 787.529 163.151C784.975 163.151 783.485 164.215 783.485 165.705C783.485 167.621 785.401 168.259 790.296 169.324C796.043 170.601 798.171 173.368 798.171 177.199C798.171 182.094 793.702 184.861 787.955 184.861C781.782 184.861 777.312 181.456 776.887 176.135H782.634C782.846 178.476 784.975 180.179 788.168 180.179C790.509 180.179 792.212 179.114 792.212 177.412C792.212 175.496 790.509 174.645 786.039 173.793C780.505 172.729 777.525 170.601 777.525 165.705C777.525 161.235 781.995 158.469 787.742 158.469C793.489 158.469 797.746 161.874 797.959 166.769Z" fill="white"/>
</svg>
