<svg width="1024" height="185" viewBox="0 0 1024 185" fill="none" xmlns="http://www.w3.org/2000/svg">
<path d="M534.88 61.0862H422.071V46.8257H506.997V17.2403H432.714V2.97974H524.45V46.8257H534.88V61.0862ZM442.292 115.787C439.099 115.787 436.545 115.149 435.055 113.872C433.565 112.595 432.714 110.253 432.714 106.635V72.1542H524.45V116H442.292V115.787ZM450.167 86.2019V101.527H506.997V86.2019H450.167Z" fill="#172858"/>
<path d="M600.648 119.619C595.327 119.619 590.432 119.193 585.749 118.554C581.067 117.916 577.023 116.639 573.404 114.936C569.786 113.233 567.019 110.892 565.103 107.912C562.975 105.145 562.123 101.527 562.123 97.057C562.123 91.3102 564.039 86.6277 568.083 83.0093V67.8974H544.457V53.8496H657.265V68.1102H633.852V83.6478C635.555 85.3506 636.832 87.2662 637.684 89.3947C638.535 91.5231 638.961 94.0772 638.961 97.057C638.961 101.314 637.896 104.932 635.981 107.912C634.065 110.679 631.298 113.02 627.893 114.936C624.487 116.639 620.443 117.916 615.76 118.554C610.865 119.193 605.97 119.619 600.648 119.619ZM600.648 48.3157C595.327 48.3157 590.645 47.89 585.962 46.8258C581.492 45.7616 577.661 44.2716 574.255 42.356C571.063 40.2276 568.509 37.8863 566.593 34.6936C564.677 31.7138 563.826 28.0954 563.826 24.0514C563.826 20.0074 564.677 16.389 566.593 13.4092C568.509 10.4294 571.063 7.87522 574.255 5.95962C577.448 4.04402 581.279 2.55409 585.962 1.48987C590.432 0.42565 595.327 0 600.648 0C605.97 0 610.652 0.42565 615.335 1.48987C619.805 2.55409 623.636 4.04402 627.041 5.95962C630.234 7.87522 633.001 10.4294 634.704 13.4092C636.619 16.389 637.471 20.0074 637.471 24.0514C637.471 28.0954 636.619 31.7138 634.704 34.6936C632.788 37.6734 630.234 40.2276 627.041 42.356C623.849 44.4845 619.805 45.9744 615.335 46.8258C610.865 47.89 605.97 48.3157 600.648 48.3157ZM600.648 105.571C602.99 105.571 605.331 105.571 607.885 105.358C610.439 105.145 612.568 104.719 614.483 104.081C616.399 103.442 618.102 102.591 619.379 101.527C620.656 100.463 621.294 98.9726 621.294 97.057C621.294 95.1414 620.656 93.6516 619.379 92.5873C618.102 91.5231 616.399 90.4589 614.483 90.0332C612.568 89.3946 610.226 88.9689 607.885 88.7561C605.331 88.5433 602.99 88.5432 600.648 88.5432C598.307 88.5432 595.753 88.5433 593.199 88.7561C590.645 88.9689 588.516 89.3946 586.388 90.0332C584.259 90.6717 582.769 91.5231 581.279 92.5873C580.002 93.6516 579.364 95.3543 579.364 97.057C579.364 98.9726 580.002 100.463 581.279 101.527C582.557 102.591 584.259 103.442 586.388 104.081C588.516 104.719 590.645 105.145 593.199 105.358C595.966 105.571 598.307 105.571 600.648 105.571ZM600.648 34.4808C602.99 34.4808 605.331 34.268 607.672 34.0551C610.014 33.6294 612.142 33.2037 614.058 32.3523C615.973 31.5009 617.463 30.4367 618.527 29.1596C619.592 27.8826 620.23 26.1799 620.23 24.2643C620.23 22.3487 619.592 20.6459 618.527 19.3688C617.463 18.0917 615.973 17.0275 614.058 16.1761C612.142 15.3247 610.014 14.8991 607.672 14.4734C605.331 14.0477 602.99 14.0477 600.648 14.0477C598.307 14.0477 595.966 14.2606 593.624 14.4734C591.283 14.8991 589.368 15.3247 587.452 16.1761C585.536 17.0275 584.046 18.0917 582.982 19.3688C581.918 20.6459 581.279 22.3487 581.279 24.2643C581.279 26.1799 581.918 27.8826 582.982 29.1596C584.046 30.4367 585.536 31.5009 587.452 32.3523C589.368 33.2037 591.283 33.6294 593.624 34.0551C595.966 34.268 598.307 34.4808 600.648 34.4808ZM600.648 74.7084C603.415 74.7084 605.969 74.7084 608.736 74.9212C611.291 75.134 613.845 75.3469 616.186 75.7726V67.8974H585.323V75.5598C590.219 74.9212 595.327 74.7084 600.648 74.7084Z" fill="#172858"/>
<path d="M717.076 5.95995C716.437 12.9838 715.586 19.582 714.309 25.7545C713.245 31.9269 711.755 37.8866 709.839 43.6334C714.309 51.9344 719.417 59.5968 725.164 66.8335C730.911 74.0702 736.87 80.6683 743.469 86.4151L732.826 98.5473C727.505 93.6519 721.971 88.1179 716.863 81.9454C711.542 75.7729 706.859 69.1747 702.602 62.1509C695.366 76.1986 685.149 89.1822 671.74 101.101L659.82 90.4592C666.206 84.2867 671.527 78.1142 676.209 72.1546C680.892 65.9821 684.723 59.5967 687.916 52.7857C691.109 45.9747 693.663 38.5252 695.578 30.6499C697.494 22.7747 698.984 13.8352 700.048 4.04436L717.076 5.95995ZM772.203 115.788H754.962V54.0628H733.891V39.8022H754.962V1.27734H772.203V115.788Z" fill="#172858"/>
<path d="M856.064 2.98014V98.5473H803.491C800.298 98.5473 797.744 97.9088 796.254 96.6317C794.765 95.3546 793.913 93.0134 793.913 89.395V2.98014H811.366V38.738H838.611V2.98014H856.064ZM838.611 84.2867V52.9986H811.366V84.2867H838.611ZM894.589 115.788H877.349V1.27734H894.589V115.788Z" fill="#172858"/>
<path d="M1024 105.784H911.191V91.523H1024V105.784ZM980.792 5.95953C979.728 12.5577 978.025 18.943 975.258 25.1155C977.812 28.521 980.792 31.9265 984.197 35.332C987.603 38.7375 991.434 41.9302 995.265 45.1229C999.31 48.3156 1003.35 51.0826 1007.82 53.8495C1012.08 56.6165 1016.55 58.745 1021.02 60.6606L1011.65 73.4312C1007.61 71.5156 1003.57 69.3872 999.309 66.833C995.053 64.2789 991.221 61.512 987.177 58.5321C983.346 55.5523 979.515 52.3596 976.109 48.9541C972.704 45.5486 969.724 42.3559 967.17 38.9504C961.849 46.4 955.463 53.211 948.014 59.1706C940.351 65.3431 931.837 70.6642 922.259 75.134L913.32 63.0018C919.705 59.8091 925.878 55.978 931.625 51.9339C937.371 47.6771 942.48 43.2073 946.949 38.3119C951.419 33.4165 955.25 28.0954 958.23 22.3486C961.21 16.6018 963.339 10.6421 964.616 4.04395L980.792 5.95953Z" fill="#172858"/>
<path d="M0.212859 44.2725H113.873V73.0065H71.7291V116.001H42.1435V73.0065H0V44.2725H0.212859Z" fill="#172858"/>
<path d="M71.943 1.27734H42.3574V34.2682H71.943V1.27734Z" fill="#E6571E"/>
<path d="M221.785 1.27734V44.2719H160.06V1.27734H132.177V116.001H160.06V70.8775H221.785V116.001H249.668V1.27734H221.785Z" fill="#172858"/>
<path d="M295.644 72.3682H357.795V44.2727H267.974V115.788H372.907V90.2471H295.644V72.3682Z" fill="#172858"/>
<path d="M372.907 1.49072H267.974V26.6064H372.907V1.49072Z" fill="#172858"/>
<path d="M249.666 163.465H241.578V183.685H236.044V163.465H227.956V158.57H249.879V163.465H249.666Z" fill="#172858"/>
<path d="M279.891 158.57V183.685H274.357V173.469H263.289V183.685H257.755V158.57H263.289V168.573H274.357V158.57H279.891Z" fill="#172858"/>
<path d="M289.255 158.57H307.985V163.465H295.002V168.573H306.921V173.469H295.002V178.79H308.411V183.685H289.468V158.57H289.255Z" fill="#172858"/>
<path d="M330.548 158.57H349.065V163.465H336.295V169.212H347.788V174.107H336.295V183.685H330.761V158.57H330.548Z" fill="#172858"/>
<path d="M362.688 158.57V183.685H357.154V158.57H362.688Z" fill="#172858"/>
<path d="M372.053 158.571H376.735L389.293 173.682V158.358H394.827V183.473H390.145L377.587 168.361V183.686H372.053V158.571Z" fill="#172858"/>
<path d="M419.731 178.79H409.94L408.237 183.685H402.49L412.281 158.57H418.028L427.819 183.685H421.646L419.731 178.79ZM418.028 173.894L414.835 165.168L411.643 173.894H418.028Z" fill="#172858"/>
<path d="M435.269 158.571H439.951L452.509 173.682V158.358H458.043V183.473H453.36L440.803 168.361V183.686H435.269V158.571Z" fill="#172858"/>
<path d="M466.344 171.128C466.344 163.465 472.091 157.931 479.753 157.931C486.564 157.931 491.247 162.188 492.311 167.509H486.564C485.926 165.168 483.371 163.253 479.753 163.253C475.283 163.253 471.878 166.658 471.878 171.341C471.878 176.023 475.283 179.429 479.753 179.429C483.371 179.429 486.351 177.087 486.777 174.746H492.524C491.672 179.854 486.777 184.537 479.753 184.537C472.091 184.324 466.344 178.79 466.344 171.128Z" fill="#172858"/>
<path d="M506.358 158.57V183.685H500.824V158.57H506.358Z" fill="#172858"/>
<path d="M531.263 178.79H521.472L519.769 183.685H514.022L523.813 158.57H529.56L539.351 183.685H533.179L531.263 178.79ZM529.56 173.894L526.367 165.168L523.175 173.894H529.56Z" fill="#172858"/>
<path d="M552.332 158.57V178.79H564.89V183.685H546.798V158.57H552.332Z" fill="#172858"/>
<path d="M606.183 166.233H600.436C600.011 164.104 598.521 162.614 595.754 162.614C593.199 162.614 591.709 163.678 591.709 165.168C591.709 167.084 593.625 167.722 598.521 168.787C604.267 170.064 606.396 172.831 606.396 176.662C606.396 181.557 601.926 184.324 596.179 184.324C590.007 184.324 585.537 180.919 585.111 175.598H590.858C591.071 177.939 593.199 179.642 596.392 179.642C598.733 179.642 600.436 178.578 600.436 176.875C600.436 174.959 598.733 174.108 594.264 173.256C588.73 172.192 585.75 170.064 585.75 165.168C585.75 160.699 590.22 157.932 595.966 157.932C601.713 157.932 605.757 161.337 606.183 166.233Z" fill="#172858"/>
<path d="M614.482 158.57H633.213V163.465H620.229V168.573H632.149V173.469H620.229V178.79H633.639V183.685H614.695V158.57H614.482Z" fill="#172858"/>
<path d="M657.053 183.685L652.157 175.81H647.687V183.685H642.153V158.57H652.37C658.755 158.57 662.586 161.975 662.586 167.083C662.586 170.489 660.884 173.256 657.904 174.533L663.651 183.472H657.053V183.685ZM647.687 170.915H651.944C654.924 170.915 656.627 169.637 656.627 167.296C656.627 164.955 654.924 163.678 651.944 163.678H647.687V170.915Z" fill="#172858"/>
<path d="M694.514 158.57L684.51 183.685H678.551L668.547 158.57H674.932L681.743 177.087L688.554 158.57H694.514Z" fill="#172858"/>
<path d="M707.71 158.57V183.685H702.176V158.57H707.71Z" fill="#172858"/>
<path d="M716.012 171.128C716.012 163.466 721.759 157.932 729.421 157.932C736.232 157.932 740.915 162.189 741.979 167.51H736.232C735.594 165.168 733.039 163.253 729.421 163.253C724.951 163.253 721.546 166.658 721.546 171.341C721.546 176.023 724.951 179.429 729.421 179.429C733.039 179.429 736.019 177.088 736.445 174.746H742.192C741.34 179.855 736.445 184.537 729.421 184.537C721.759 184.324 716.012 178.79 716.012 171.128Z" fill="#172858"/>
<path d="M750.492 158.57H769.223V163.465H756.026V168.573H767.945V173.469H756.026V178.79H769.435V183.685H750.492V158.57Z" fill="#172858"/>
<path d="M797.959 166.233H792.212C791.786 164.104 790.296 162.614 787.529 162.614C784.975 162.614 783.485 163.678 783.485 165.168C783.485 167.084 785.401 167.722 790.296 168.787C796.043 170.064 798.171 172.831 798.171 176.662C798.171 181.557 793.702 184.324 787.955 184.324C781.782 184.324 777.312 180.919 776.887 175.598H782.634C782.846 177.939 784.975 179.642 788.168 179.642C790.509 179.642 792.212 178.578 792.212 176.875C792.212 174.959 790.509 174.108 786.039 173.256C780.505 172.192 777.525 170.064 777.525 165.168C777.525 160.699 781.995 157.932 787.742 157.932C793.489 157.932 797.746 161.337 797.959 166.233Z" fill="#172858"/>
</svg>
