<svg width="139" height="39" viewBox="0 0 139 39" fill="none" xmlns="http://www.w3.org/2000/svg">
<g clip-path="url(#clip0_25_378)">
<path d="M40.2652 4.57861V8.6871H43.488V4.57861H45.4734V15.1156H43.488V10.445H40.2652V15.1156H38.2798V4.57861H40.2652Z" fill="#C8161D"/>
<path d="M47.0176 8.44184C47.0176 7.74687 47.1135 7.13366 47.3053 6.61243C47.4972 6.09121 47.7657 5.65174 48.1302 5.30426C48.4851 4.95677 48.9167 4.69105 49.4155 4.50709C49.9142 4.32312 50.4801 4.24136 51.094 4.24136C51.7078 4.24136 52.2737 4.33334 52.7821 4.50709C53.2904 4.68083 53.722 4.94655 54.0769 5.30426C54.4318 5.65174 54.71 6.09121 54.9018 6.61243C55.0936 7.13366 55.1991 7.74687 55.1991 8.44184V11.1502C55.1991 11.8349 55.1032 12.4379 54.9018 12.9591C54.71 13.4804 54.4318 13.9198 54.0769 14.2673C53.722 14.6148 53.2904 14.8805 52.7821 15.0543C52.2737 15.228 51.7174 15.32 51.094 15.32C50.4705 15.32 49.9142 15.228 49.4155 15.0543C48.9167 14.8805 48.4851 14.6148 48.1302 14.2673C47.7753 13.9198 47.4972 13.4804 47.3053 12.9591C47.1135 12.4379 47.0176 11.8349 47.0176 11.1502V8.44184ZM48.9647 10.8947C48.9647 11.8451 49.1469 12.5401 49.5114 12.9489C49.8758 13.3679 50.4034 13.5723 51.094 13.5723C51.7846 13.5723 52.3025 13.3679 52.667 12.9489C53.0314 12.5299 53.2137 11.8451 53.2137 10.8947V8.73822C53.2137 7.77753 53.0314 7.08256 52.667 6.66353C52.3025 6.24451 51.775 6.04011 51.1036 6.04011C50.4321 6.04011 49.895 6.24451 49.521 6.66353C49.1565 7.08256 48.9742 7.76731 48.9742 8.73822V10.8947H48.9647Z" fill="#C8161D"/>
<path d="M60.6183 13.5825C61.8556 13.5825 62.4694 12.8569 62.4694 11.4159V4.57861H64.4261V11.1604C64.4261 12.6116 64.1192 13.6643 63.5053 14.3286C62.8915 14.9929 61.9227 15.32 60.6087 15.32C59.2946 15.32 58.3163 14.9929 57.712 14.3286C57.0982 13.6643 56.7913 12.6116 56.7913 11.1604V4.57861H58.7767V11.4159C58.7767 12.8569 59.3906 13.5825 60.6183 13.5825Z" fill="#C8161D"/>
<path d="M71.2169 7.39939C71.1882 6.90883 71.0347 6.56134 70.747 6.35694C70.4592 6.15254 70.066 6.05034 69.5576 6.05034C69.0493 6.05034 68.704 6.15254 68.445 6.36716C68.186 6.58178 68.0613 6.92927 68.0805 7.39939C68.0805 7.64468 68.1764 7.84908 68.3587 8.0126C68.5409 8.17612 68.7423 8.3192 68.9917 8.43163C69.2411 8.54405 69.4905 8.63603 69.759 8.70757C70.0276 8.77911 70.2386 8.84043 70.4113 8.89153C70.8525 9.03461 71.2553 9.19813 71.6198 9.3821C71.9843 9.55584 72.2912 9.77046 72.5598 10.0157C72.8187 10.261 73.0201 10.5574 73.1736 10.8845C73.3271 11.2115 73.3942 11.6203 73.3942 12.0904C73.3942 12.6934 73.2983 13.2044 73.0969 13.6234C72.8955 14.0425 72.6173 14.3797 72.272 14.6352C71.9171 14.8907 71.5143 15.0747 71.0443 15.1871C70.5743 15.2995 70.0851 15.3404 69.5576 15.32C69.0109 15.2995 68.5121 15.2178 68.0709 15.0747C67.6297 14.9316 67.2461 14.7068 66.9199 14.4104C66.5938 14.114 66.3445 13.7461 66.1622 13.2964C65.98 12.8467 65.8745 12.3153 65.8457 11.7021H67.7832C67.8024 12.3051 67.975 12.765 68.3011 13.0818C68.6272 13.3986 69.0684 13.5621 69.6056 13.5723C70.2194 13.5723 70.6798 13.4804 70.9867 13.2657C71.2937 13.0511 71.4375 12.6628 71.4184 12.0904C71.4184 11.8247 71.3416 11.5999 71.2265 11.4261C71.1018 11.2524 70.9388 11.1093 70.7374 10.9867C70.5359 10.864 70.2962 10.7618 70.0276 10.6698C69.759 10.5779 69.4809 10.4961 69.1835 10.3939C68.8382 10.3019 68.4834 10.1793 68.1285 10.0464C67.764 9.90332 67.4379 9.72958 67.1406 9.50474C66.8432 9.2799 66.6034 9.00395 66.4116 8.67691C66.2198 8.34986 66.1239 7.94106 66.1239 7.46071C66.1239 6.93949 66.2102 6.47958 66.3828 6.081C66.5555 5.68241 66.7953 5.34515 67.1022 5.07942C67.4091 4.8137 67.7736 4.6093 68.1956 4.47644C68.6176 4.33335 69.078 4.27203 69.5768 4.27203C70.1427 4.27203 70.6415 4.34357 71.0827 4.49688C71.5239 4.63996 71.8979 4.85458 72.2049 5.13052C72.5118 5.40647 72.7516 5.73351 72.9146 6.1321C73.0777 6.53068 73.1736 6.95993 73.1928 7.44027H71.2361L71.2169 7.39939Z" fill="#C8161D"/>
<path d="M80.9619 4.57861V6.35691H76.6649V8.92217H80.4631V10.7209H76.6649V13.3168H81.0962V15.1156H74.6794V4.57861H80.9619Z" fill="#C8161D"/>
<path d="M86.9471 12.3152L89.2203 4.57861H91.3496V15.1156H89.5655V9.10613L87.7815 15.1156H86.103L84.3286 9.08569V15.1156H82.5254V4.57861H84.6547L86.9471 12.3152Z" fill="#9F0810"/>
<path d="M92.606 15.1156L95.8767 4.57861H97.8429L101.114 15.1156H99.2049L98.6006 13.1737H95.0997L94.5147 15.1156H92.606ZM96.855 7.40959L95.6177 11.4568H98.0827L96.855 7.40959Z" fill="#9F0810"/>
<path d="M104.221 4.57861L107.761 11.283V4.57861H109.669V15.1156H107.876L104.375 8.42138V15.1156H102.389V4.57861H104.221Z" fill="#9F0810"/>
<path d="M0 0V24.0991L8.58439 16.7099V5.72327H28.1223V0H0ZM3.70232 8.33962C3.30907 5.87657 2.99255 5.53931 0.680996 5.12028C2.99255 4.70126 3.30907 4.36399 3.70232 1.90094C4.09557 4.36399 4.41209 4.70126 6.72364 5.12028C4.41209 5.53931 4.09557 5.87657 3.70232 8.33962Z" fill="#9F0810"/>
<path d="M12.2578 16.7406L16.7562 20.8388L18.2717 22.3105L16.7562 19.8577V18.478H20.4298V24.1808L23.0866 26.5928V39H28.1222V9.63757H12.2578V16.7406Z" fill="#C8161D"/>
<path d="M0.124689 29.0149L0 28.8514V39H19.4132V28.4017L10.3876 20.195L0.124689 29.0149ZM12.8047 33.0008H8.21032V28.0747H12.8047V33.0008Z" fill="#C8161D"/>
<path d="M41.7135 23.9866V24.4363C42.4041 24.467 42.97 24.5794 43.3441 24.8042C43.7181 25.0291 43.91 25.3459 43.91 25.8263C43.91 26.3066 43.7181 26.6234 43.3441 26.838C42.8741 27.1242 42.1451 27.2264 41.2339 27.2264C40.3227 27.2264 39.5938 27.1242 39.1238 26.838C38.7593 26.6234 38.5579 26.2964 38.5579 25.8263C38.5579 25.3561 38.7593 25.0291 39.1238 24.8042C39.5075 24.5794 40.0638 24.4772 40.7352 24.4363V23.9866H38.251V23.0873H44.1977V23.9866H41.7039H41.7135ZM38.673 20.0621H43.7853V20.941H41.7519C41.9533 21.5031 42.8645 21.7995 43.8524 21.8813V22.7602C42.7782 22.6887 41.7998 22.3719 41.2147 21.82C40.6297 22.3821 39.6513 22.6989 38.5771 22.7602V21.8813C39.5458 21.82 40.4666 21.5031 40.668 20.941H38.6634V20.0621H38.673ZM39.5458 25.8263C39.5458 25.9693 39.613 26.0715 39.7377 26.1431C40.0062 26.2964 40.505 26.3373 41.2339 26.3373C41.9629 26.3373 42.4616 26.2964 42.7302 26.1431C42.8645 26.0715 42.922 25.9693 42.922 25.8263C42.922 25.6832 42.8549 25.581 42.7302 25.4992C42.4616 25.3561 41.9629 25.305 41.2339 25.305C40.505 25.305 40.0062 25.3459 39.7377 25.4992C39.613 25.581 39.5458 25.6832 39.5458 25.8263Z" fill="#040000"/>
<path d="M45.0225 25.8058H47.4587V23.8129H48.437V25.8058H50.9021V26.7154H45.0225V25.8058ZM47.9575 22.5354C47.4779 23.261 46.5283 23.9866 45.128 24.2421V23.3223C46.6434 22.9442 47.4587 21.9937 47.4587 20.4607V20.0621H48.4466V20.4607C48.4466 21.9937 49.2715 22.9442 50.787 23.3223V24.2421C49.3866 23.9764 48.4274 23.261 47.9575 22.5354Z" fill="#040000"/>
<path d="M53.1178 19.7759H54.1057V20.3994H55.4293V21.2579H51.6982V20.3994H53.1178V19.7759ZM51.8901 22.8215C51.8901 22.4025 52.0723 22.055 52.3792 21.82C52.6862 21.5849 53.1082 21.4725 53.5878 21.4725C54.0673 21.4725 54.499 21.5849 54.7963 21.82C55.1032 22.055 55.2951 22.3923 55.2951 22.8215C55.2951 23.2508 55.1032 23.5983 54.7963 23.8231C54.4894 24.0582 54.0673 24.1706 53.5878 24.1706C53.1082 24.1706 52.6766 24.0582 52.3792 23.8231C52.0723 23.588 51.8901 23.2508 51.8901 22.8215ZM52.2258 25.816C52.2258 25.3663 52.4176 25.0597 52.7437 24.8451C53.2233 24.5487 53.9714 24.4465 54.8251 24.4465C55.6787 24.4465 56.4364 24.5487 56.9064 24.8451C57.2421 25.0597 57.434 25.3766 57.434 25.816C57.434 26.2555 57.2421 26.5723 56.9064 26.7869C56.4364 27.0833 55.6787 27.1855 54.8251 27.1855C53.9714 27.1855 53.2233 27.0833 52.7437 26.7869C52.408 26.5723 52.2258 26.2555 52.2258 25.816ZM52.83 22.8215C52.83 22.9646 52.8972 23.077 52.9931 23.169C53.1274 23.2814 53.3384 23.353 53.5878 23.353C53.8371 23.353 54.0386 23.2814 54.1824 23.169C54.2784 23.077 54.3455 22.9646 54.3455 22.8215C54.3455 22.6785 54.2784 22.566 54.1824 22.4741C54.0482 22.3616 53.8371 22.3003 53.5878 22.3003C53.3384 22.3003 53.137 22.3616 52.9931 22.4741C52.8972 22.566 52.83 22.6785 52.83 22.8215ZM53.2137 25.816C53.2137 25.9285 53.2712 26.0204 53.3863 26.0818C53.6549 26.2351 54.1728 26.2964 54.8251 26.2964C55.4773 26.2964 56.0048 26.2351 56.2638 26.0818C56.3789 26.0102 56.446 25.9285 56.446 25.816C56.446 25.7036 56.3789 25.6116 56.2638 25.5401C56.0048 25.3868 55.4773 25.3255 54.8251 25.3255C54.1728 25.3255 53.6549 25.3868 53.3863 25.5401C53.2712 25.6116 53.2137 25.7036 53.2137 25.816ZM55.4197 21.4929H56.3022V19.9906H57.2901V24.3648H56.3022V23.6902H55.4197V22.842H56.3022V22.3514H55.4197V21.5031V21.4929Z" fill="#040000"/>
<path d="M62.9012 20.9104V20.0621H63.87V23.3836H60.5801V20.0621H61.5488V20.9104H62.9108H62.9012ZM61.9421 26.2453H66.0089V27.0936H60.9541V25.0291H64.9538V24.6407H60.9541V23.7925H65.9321V25.8569H61.9325V26.2351L61.9421 26.2453ZM62.9012 21.7689H61.5392V22.5354H62.9012V21.7689ZM64.9538 23.5165V19.9803H65.9417V23.5165H64.9538Z" fill="#040000"/>
<path d="M70.3154 23.6187H67.3037V20.0621H70.5936V20.9717H68.282V22.7193H70.584C71.1307 22.7193 71.4568 22.6376 71.6774 22.4638V19.9803H72.6654V23.9969H71.6774V23.3121C71.4568 23.5165 71.054 23.6187 70.3059 23.6187H70.3154ZM67.6106 25.6321C67.6106 25.1211 67.86 24.7634 68.2245 24.5283C68.7424 24.191 69.5098 24.0888 70.2099 24.0888C70.9101 24.0888 71.687 24.191 72.1954 24.5283C72.5694 24.7634 72.8188 25.1313 72.8188 25.6321C72.8188 26.1329 72.579 26.511 72.1954 26.7461C71.687 27.0731 70.9197 27.1753 70.2099 27.1753C69.5002 27.1753 68.7424 27.0731 68.2245 26.7461C67.86 26.511 67.6106 26.1431 67.6106 25.6321ZM68.5986 25.6321C68.5986 25.8058 68.6849 25.9285 68.8479 26.0307C69.1549 26.2146 69.7016 26.2759 70.2195 26.2759C70.7375 26.2759 71.2842 26.2146 71.5911 26.0307C71.7446 25.9285 71.8405 25.8058 71.8405 25.6321C71.8405 25.4583 71.7446 25.3357 71.5911 25.2437C71.2842 25.0495 70.7375 24.9984 70.2195 24.9984C69.7016 24.9984 69.1645 25.0495 68.8479 25.2437C68.6849 25.3459 68.5986 25.4686 68.5986 25.6321Z" fill="#040000"/>
<path d="M81.1537 21.9631H82.0937V22.8726H81.1537V25.0393H80.1658V23.9764C79.9356 24.1706 79.5424 24.2728 78.8134 24.2728H75.7441V23.3632H76.6649V21.7995H77.6528V23.3632H79.082C79.6287 23.3632 79.9452 23.2814 80.1658 23.1179V19.9803H81.1537V21.9631ZM78.4298 20.9615H76.0127V20.0519H79.4177V21.6156C79.4177 22.0039 79.3889 22.4332 79.3218 22.7807H78.353C78.401 22.4332 78.4298 22.0244 78.4298 21.6564V20.9615ZM76.2333 27.0936V24.7736H77.2212V26.1737H81.2688V27.0833H76.2333V27.0936Z" fill="#040000"/>
<path d="M83.7051 25.6423H85.9208C86.4579 25.6423 86.8511 25.5503 87.0622 25.3561V19.9803H88.0501V27.022H87.0622V26.2044C86.8416 26.4395 86.3524 26.5519 85.7385 26.5519H82.7268V22.8318H84.9233V21.0126H82.7268V20.103H85.9016V23.7516H83.7051V25.6423Z" fill="#040000"/>
<path d="M92.6732 19.9803V27.022H91.6853V19.9803H92.6732Z" fill="#040000"/>
<path d="M96.0686 21.8302C96.0686 21.1556 96.27 20.6446 96.6441 20.3176C96.9414 20.0621 97.3443 19.9292 97.8143 19.9292C98.2842 19.9292 98.6967 20.0621 98.9844 20.3176C99.3585 20.6446 99.5599 21.1556 99.5599 21.8302C99.5599 22.5047 99.3585 23.0157 98.9844 23.3428C98.6871 23.5983 98.2842 23.7311 97.8143 23.7311C97.3443 23.7311 96.9318 23.5983 96.6441 23.3428C96.27 23.0157 96.0686 22.4945 96.0686 21.8302ZM96.529 24.2421H101.507V27.0935H96.529V24.2421ZM97.0373 21.8302C97.0373 22.1879 97.1333 22.4638 97.2963 22.6273C97.421 22.7602 97.6032 22.8215 97.8238 22.8215C98.0444 22.8215 98.2171 22.7602 98.3514 22.6273C98.5144 22.4536 98.6103 22.1777 98.6103 21.8302C98.6103 21.4827 98.5144 21.1965 98.3514 21.033C98.2267 20.9001 98.0444 20.8286 97.8238 20.8286C97.6032 20.8286 97.4306 20.9001 97.2963 21.033C97.1333 21.1965 97.0373 21.4827 97.0373 21.8302ZM97.5169 25.1415V26.1942H100.529V25.1415H97.5169ZM100.529 23.9151V19.9701H101.517V23.9151H100.529Z" fill="#040000"/>
<path d="M104.653 26.5519H102.878V20.103H105.295V21.0126H103.838V25.6423H104.845C105.324 25.6423 105.689 25.5708 105.9 25.397V20.0212H106.859V22.6785H107.367V19.9803H108.326V27.022H107.367V23.5983H106.859V26.9403H105.9V26.2555C105.679 26.4497 105.248 26.5519 104.653 26.5519Z" fill="#040000"/>
<path d="M111.357 24.3852H117.227V25.2948H114.772V27.1242H113.784V25.2948H111.348V24.3852H111.357ZM111.683 20.0621H116.901V20.9717H114.781C114.858 22.055 115.817 22.658 116.959 22.8726V23.7822C115.827 23.5983 114.868 23.1384 114.283 22.423C113.707 23.1384 112.738 23.5983 111.607 23.7822V22.8726C112.738 22.658 113.698 22.055 113.774 20.9717H111.683V20.0621Z" fill="#040000"/>
<path d="M120.69 21.6564V22.5149H119.174V23.2814H120.383C120.824 23.2814 121.112 23.1997 121.323 23.0259V20.011H122.253V21.6462H122.762V19.9701H123.702V24.3035H122.762V22.566H122.253V24.2728H121.323V23.8333C121.102 24.0377 120.776 24.1297 120.114 24.1297H118.225V20.0519H120.776V20.9002H119.174V21.6462H120.69V21.6564ZM122.723 25.5503H118.609V24.6407H123.711V27.1344H122.723V25.5503Z" fill="#040000"/>
<path d="M132.113 21.9631H133.053V22.8726H132.113V25.0393H131.126V23.9764C130.895 24.1706 130.502 24.2728 129.773 24.2728H126.704V23.3632H127.625V21.7995H128.613V23.3632H130.042C130.588 23.3632 130.905 23.2814 131.126 23.1179V19.9803H132.113V21.9631ZM129.389 20.9615H126.972V20.0519H130.377V21.6156C130.377 22.0039 130.349 22.4332 130.281 22.7807H129.313C129.361 22.4332 129.389 22.0244 129.389 21.6564V20.9615ZM127.193 27.0936V24.7736H128.181V26.1737H132.229V27.0833H127.193V27.0936Z" fill="#040000"/>
<path d="M134.665 25.6423H136.88C137.417 25.6423 137.811 25.5503 138.022 25.3561V19.9803H139.01V27.022H138.022V26.2044C137.811 26.4395 137.312 26.5519 136.698 26.5519H133.686V22.8318H135.883V21.0126H133.686V20.103H136.861V23.7516H134.665V25.6423Z" fill="#040000"/>
<path d="M42.1355 31.0181L43.1522 34.544L44.1402 31.0181H45.013L43.6126 35.5967H42.711L41.6943 32.0401L40.6872 35.5967H39.776L38.3853 31.0181H39.2581L40.2364 34.544L41.2627 31.0181H42.1259H42.1355Z" fill="#595757"/>
<path d="M49.454 31.0181L50.4707 34.544L51.4586 31.0181H52.3314L50.931 35.5967H50.0295L49.0127 32.0401L47.9961 35.5967H47.0849L45.6941 31.0181H46.5669L47.5453 34.544L48.5715 31.0181H49.4348H49.454Z" fill="#595757"/>
<path d="M56.7721 31.0181L57.7888 34.544L58.7767 31.0181H59.6495L58.2492 35.5967H57.3476L56.3309 32.0401L55.3142 35.5967H54.403L53.0122 31.0181H53.885L54.8634 34.544L55.8897 31.0181H56.7529H56.7721Z" fill="#595757"/>
<path d="M61.6253 35.5865H60.6758V34.5031H61.6253V35.5865Z" fill="#595757"/>
<path d="M66.8817 35.5865H66.028V32.7964C66.028 31.9992 65.7307 31.6517 65.1744 31.6517C64.5605 31.6517 64.0906 32.1627 64.0906 33.1132V35.5865H63.2561V29.1785H64.0906V31.7744C64.292 31.2429 64.7236 30.8954 65.3758 30.8954C66.335 30.8954 66.8721 31.5495 66.8721 32.7146V35.5763L66.8817 35.5865Z" fill="#595757"/>
<path d="M71.9076 33.2972C71.9076 34.8302 71.2746 35.6887 70.0085 35.6887C68.7424 35.6887 68.1094 34.82 68.1094 33.2972C68.1094 31.7744 68.7424 30.9057 70.0085 30.9057C71.2746 30.9057 71.9076 31.7744 71.9076 33.2972ZM71.0636 33.2972C71.0636 32.2854 70.8046 31.6415 70.0085 31.6415C69.2124 31.6415 68.963 32.2752 68.963 33.2972C68.963 34.3192 69.222 34.9426 70.0085 34.9426C70.795 34.9426 71.0636 34.309 71.0636 33.2972Z" fill="#595757"/>
<path d="M73.1353 31.0181H73.9793V33.8082C73.9793 34.6054 74.2766 34.9528 74.8329 34.9528C75.4564 34.9528 75.9168 34.4418 75.9168 33.4914V31.0181H76.7608V35.5967H75.9168V34.8302C75.7154 35.3617 75.2837 35.7091 74.6315 35.7091C73.682 35.7091 73.1448 35.055 73.1448 33.89V31.0283L73.1353 31.0181Z" fill="#595757"/>
<path d="M81.2497 32.2445V32.3467H80.4057V32.2343C80.4057 31.897 80.1467 31.6211 79.648 31.6211C79.1492 31.6211 78.8806 31.897 78.8806 32.2241C78.8806 32.7249 79.2643 32.7351 80.0604 32.9088C80.9908 33.0928 81.4128 33.5118 81.4128 34.309C81.4128 35.1061 80.751 35.6887 79.7151 35.6887C78.6792 35.6887 78.0078 35.1061 78.0078 34.309V34.1761H78.8519V34.309C78.8519 34.728 79.1972 34.9733 79.7151 34.9733C80.233 34.9733 80.5687 34.7178 80.5687 34.3396C80.5687 33.8082 80.1659 33.7469 79.3986 33.5833C78.4682 33.4096 78.0462 33.011 78.0462 32.2547C78.0462 31.4984 78.6409 30.9159 79.648 30.9159C80.6551 30.9159 81.2497 31.4576 81.2497 32.2547V32.2445Z" fill="#595757"/>
<path d="M83.3502 33.5834C83.379 34.4418 83.6955 34.9528 84.4149 34.9528C84.952 34.9528 85.2781 34.6769 85.3357 34.2272H86.1989C86.0646 35.147 85.4412 35.7091 84.4149 35.7091C83.1296 35.7091 82.4966 34.8404 82.4966 33.3176C82.4966 31.7948 83.1296 30.9261 84.3957 30.9261C85.6618 30.9261 86.2948 31.805 86.2948 33.3176C86.2948 33.4198 86.2948 33.5016 86.2948 33.5936H83.3598L83.3502 33.5834ZM83.3502 32.8986H85.4316C85.374 32.1321 85.0671 31.662 84.3957 31.662C83.7243 31.662 83.4174 32.1321 83.3502 32.8986Z" fill="#595757"/>
<path d="M91.0331 35.5865H90.1794V32.6329C90.1794 31.9686 89.9204 31.6517 89.4025 31.6517C88.8078 31.6517 88.3762 32.1423 88.3762 33.103V35.5865H87.5417V31.0079H88.3762V31.7642C88.568 31.2429 88.9709 30.9057 89.6039 30.9057C90.237 30.9057 90.7069 31.2429 90.8892 31.8255C91.129 31.2021 91.5894 30.9057 92.2416 30.9057C93.1624 30.9057 93.6803 31.5495 93.6803 32.6635V35.5865H92.8267V32.6329C92.8267 31.9686 92.5581 31.6517 92.0498 31.6517C91.4551 31.6517 91.0331 32.1627 91.0331 33.1132V35.5865Z" fill="#595757"/>
<path d="M96.5002 35.6989C95.5027 35.6989 94.8696 35.1777 94.8696 34.2477C94.8696 33.3176 95.5027 32.7964 96.5002 32.7964C97.0949 32.7964 97.5552 33.011 97.7087 33.3892V32.6431C97.7087 32.0197 97.4018 31.662 96.7783 31.662C96.222 31.662 95.9439 31.9175 95.8767 32.3774H95.0231C95.0806 31.4678 95.6753 30.9159 96.7687 30.9159C97.9677 30.9159 98.5432 31.5904 98.5432 32.6431V34.9733C98.5432 35.1981 98.5815 35.4434 98.6391 35.6069H97.7759C97.7183 35.4843 97.6895 35.3105 97.6895 35.1164C97.5552 35.4741 97.114 35.7091 96.481 35.7091L96.5002 35.6989ZM97.7183 34.2477C97.7183 33.7775 97.373 33.522 96.7112 33.522C96.0494 33.522 95.7137 33.7775 95.7137 34.2477C95.7137 34.7178 96.059 34.9733 96.7112 34.9733C97.3634 34.9733 97.7183 34.728 97.7183 34.2477Z" fill="#595757"/>
<path d="M103.569 35.5865H102.716V32.7964C102.716 31.9992 102.418 31.6517 101.862 31.6517C101.248 31.6517 100.778 32.1627 100.778 33.1132V35.5865H99.9436V31.0079H100.778V31.7744C100.979 31.2429 101.411 30.8954 102.063 30.8954C103.022 30.8954 103.56 31.5495 103.56 32.7146V35.5763L103.569 35.5865Z" fill="#595757"/>
<path d="M106.13 35.5865H105.18V34.5031H106.13V35.5865Z" fill="#595757"/>
<path d="M109.525 30.9057C110.58 30.9057 111.252 31.478 111.357 32.5204H110.494C110.437 31.9788 110.091 31.6517 109.516 31.6517C108.729 31.6517 108.47 32.2854 108.47 33.3074C108.47 34.3294 108.729 34.9528 109.516 34.9528C110.091 34.9528 110.437 34.6258 110.494 34.0841H111.357C111.252 35.1266 110.58 35.6887 109.525 35.6887C108.25 35.6887 107.626 34.82 107.626 33.2972C107.626 31.7744 108.259 30.9057 109.525 30.9057Z" fill="#595757"/>
<path d="M116.182 33.2972C116.182 34.8302 115.549 35.6887 114.283 35.6887C113.017 35.6887 112.384 34.82 112.384 33.2972C112.384 31.7744 113.017 30.9057 114.283 30.9057C115.549 30.9057 116.182 31.7744 116.182 33.2972ZM115.338 33.2972C115.338 32.2854 115.079 31.6415 114.283 31.6415C113.487 31.6415 113.237 32.2752 113.237 33.2972C113.237 34.3192 113.496 34.9426 114.283 34.9426C115.069 34.9426 115.338 34.309 115.338 33.2972Z" fill="#595757"/>
<path d="M118.628 35.5865H117.678V34.5031H118.628V35.5865Z" fill="#595757"/>
<path d="M120.249 35.5865V29.1785H121.093V32.8373H121.534L122.704 31.0079H123.644L122.215 33.2052L123.845 35.5865H122.867L121.505 33.5629H121.083V35.5865H120.239H120.249Z" fill="#595757"/>
<path d="M125.649 33.2461V35.5865H124.814V31.0079H125.649V31.7744C125.831 31.1918 126.176 30.8954 126.838 30.8954C126.972 30.8954 127.116 30.8954 127.193 30.9261L127.174 31.662C127.107 31.662 126.963 31.6415 126.809 31.6415C126.09 31.6415 125.649 32.1832 125.649 33.2256V33.2461Z" fill="#595757"/>
</g>
<defs>
<clipPath id="clip0_25_378">
<rect width="139" height="39" fill="white"/>
</clipPath>
</defs>
</svg>
