<svg width="952" height="317" viewBox="0 0 952 317" fill="none" xmlns="http://www.w3.org/2000/svg">
<mask id="mask0_147_135" style="mask-type:alpha" maskUnits="userSpaceOnUse" x="0" y="0" width="952" height="317">
<path d="M349.351 37.2158V70.6105H377.312V37.2158H394.538V122.862H377.312V84.8987H349.351V122.862H332.125V37.2158H349.351Z" fill="#C8161D"/>
<path d="M407.937 68.6169C407.937 62.9681 408.769 57.9838 410.433 53.7471C412.097 49.5105 414.428 45.9384 417.59 43.114C420.669 40.2896 424.414 38.1297 428.741 36.6345C433.068 35.1392 437.978 34.4746 443.304 34.4746C448.63 34.4746 453.54 35.2222 457.951 36.6345C462.361 38.0467 466.106 40.2065 469.185 43.114C472.264 45.9384 474.678 49.5105 476.342 53.7471C478.006 57.9838 478.922 62.9681 478.922 68.6169V90.6308C478.922 96.1966 478.09 101.098 476.342 105.334C474.678 109.571 472.264 113.143 469.185 115.968C466.106 118.792 462.361 120.952 457.951 122.364C453.54 123.776 448.714 124.524 443.304 124.524C437.895 124.524 433.068 123.776 428.741 122.364C424.414 120.952 420.669 118.792 417.59 115.968C414.511 113.143 412.097 109.571 410.433 105.334C408.769 101.098 407.937 96.1966 407.937 90.6308V68.6169ZM424.83 88.554C424.83 96.2796 426.411 101.928 429.573 105.251C432.736 108.657 437.313 110.319 443.304 110.319C449.296 110.319 453.79 108.657 456.952 105.251C460.114 101.845 461.696 96.2796 461.696 88.554V71.026C461.696 63.2173 460.114 57.5684 456.952 54.1625C453.79 50.7566 449.213 49.0952 443.388 49.0952C437.562 49.0952 432.902 50.7566 429.657 54.1625C426.494 57.5684 424.913 63.1342 424.913 71.026V88.554H424.83Z" fill="#C8161D"/>
<path d="M525.94 110.402C536.675 110.402 542.001 104.504 542.001 92.7905V37.2158H558.978V90.7137C558.978 102.51 556.315 111.066 550.989 116.466C545.663 121.865 537.258 124.524 525.857 124.524C514.456 124.524 505.968 121.865 500.725 116.466C495.399 111.066 492.736 102.51 492.736 90.7137V37.2158H509.962V92.7905C509.962 104.504 515.288 110.402 525.94 110.402Z" fill="#C8161D"/>
<path d="M617.896 60.1434C617.647 56.156 616.315 53.3316 613.819 51.6702C611.322 50.0087 607.91 49.178 603.499 49.178C599.089 49.178 596.093 50.0087 593.846 51.7532C591.599 53.4977 590.517 56.3222 590.684 60.1434C590.684 62.1372 591.516 63.7986 593.097 65.1277C594.678 66.4569 596.426 67.6199 598.59 68.5336C600.753 69.4474 602.917 70.1951 605.247 70.7766C607.577 71.3581 609.408 71.8565 610.906 72.2719C614.734 73.4348 618.229 74.764 621.391 76.2593C624.554 77.6715 627.217 79.416 629.547 81.4097C631.794 83.4034 633.541 85.8125 634.873 88.4707C636.204 91.129 636.787 94.4519 636.787 98.2732C636.787 103.174 635.955 107.328 634.207 110.734C632.459 114.14 630.046 116.881 627.05 118.958C623.971 121.035 620.476 122.53 616.398 123.444C612.321 124.358 608.076 124.69 603.499 124.524C598.756 124.358 594.429 123.693 590.601 122.53C586.773 121.367 583.444 119.539 580.614 117.13C577.785 114.721 575.621 111.731 574.04 108.076C572.459 104.42 571.544 100.101 571.294 95.1165H588.104C588.27 100.018 589.768 103.756 592.598 106.331C595.427 108.906 599.255 110.235 603.916 110.319C609.241 110.319 613.236 109.571 615.899 107.826C618.562 106.082 619.81 102.925 619.644 98.2732C619.644 96.1133 618.978 94.2857 617.979 92.8735C616.898 91.4613 615.483 90.2983 613.735 89.3015C611.988 88.3046 609.907 87.4739 607.577 86.7263C605.247 85.9786 602.834 85.314 600.254 84.4833C597.258 83.7357 594.179 82.7388 591.1 81.6589C587.938 80.4959 585.108 79.0837 582.528 77.2561C579.949 75.4286 577.868 73.1856 576.204 70.5274C574.539 67.8691 573.707 64.5462 573.707 60.6419C573.707 56.4052 574.456 52.667 575.954 49.4272C577.452 46.1875 579.533 43.4461 582.196 41.2863C584.859 39.1264 588.021 37.465 591.682 36.3851C595.344 35.2221 599.339 34.7236 603.666 34.7236C608.576 34.7236 612.903 35.3051 616.731 36.5512C620.559 37.7142 623.805 39.4587 626.468 41.7016C629.131 43.9445 631.211 46.6028 632.626 49.8426C634.041 53.0824 634.873 56.5714 635.039 60.4757H618.063L617.896 60.1434Z" fill="#C8161D"/>
<path d="M702.446 37.2158V51.6702H665.164V72.5211H698.119V87.1417H665.164V108.242H703.611V122.862H647.938V37.2158H702.446Z" fill="#C8161D"/>
<path d="M754.374 100.101L774.097 37.2158H792.572V122.862H777.093V74.0164L761.614 122.862H747.051L731.656 73.8503V122.862H716.011V37.2158H734.485L754.374 100.101Z" fill="#9F0810"/>
<path d="M803.473 122.862L831.851 37.2158H848.91L877.288 122.862H860.727L855.485 107.079H825.11L820.034 122.862H803.473ZM840.339 60.2266L829.604 93.1228H850.991L840.339 60.2266Z" fill="#9F0810"/>
<path d="M904.251 37.2158L934.958 91.7106V37.2158H951.519V122.862H935.957L905.582 68.4506V122.862H888.356V37.2158H904.251Z" fill="#9F0810"/>
<path d="M0 0V195.882L74.4804 135.822V46.5199H243.996V0H0ZM32.1223 67.7862C28.7103 47.766 25.9641 45.0246 5.9085 41.6187C25.9641 38.2128 28.7103 35.4714 32.1223 15.4513C35.5342 35.4714 38.2804 38.2128 58.336 41.6187C38.2804 45.0246 35.5342 47.766 32.1223 67.7862Z" fill="#9F0810"/>
<path d="M106.353 136.071L145.382 169.383L158.531 181.345L145.382 161.408V150.193H177.255V196.547L200.307 216.152V317H243.996V78.3364H106.353V136.071Z" fill="#C8161D"/>
<path d="M1.08184 235.839L0 234.51V317H168.434V230.855L90.1254 164.149L1.08184 235.839ZM111.096 268.237H71.2349V228.197H111.096V268.237Z" fill="#C8161D"/>
<path d="M353.306 210.515V216.551C357.555 216.963 361.038 218.472 363.339 221.489C365.641 224.507 366.822 228.76 366.822 235.207C366.822 241.654 365.641 245.907 363.339 248.787C360.447 252.628 355.962 254 350.355 254C344.748 254 340.263 252.628 337.371 248.787C335.128 245.907 333.889 241.517 333.889 235.207C333.889 228.897 335.128 224.507 337.371 221.489C339.732 218.472 343.155 217.1 347.286 216.551V210.515H332V198.444H368.592V210.515H353.247H353.306ZM334.597 157.84H366.054V169.637H353.542C354.782 177.182 360.388 181.16 366.467 182.257V194.054C359.857 193.094 353.837 188.842 350.237 181.434C346.637 188.979 340.617 193.231 334.007 194.054V182.257C339.968 181.434 345.634 177.182 346.873 169.637H334.538V157.84H334.597ZM339.968 235.207C339.968 237.127 340.381 238.499 341.148 239.459C342.801 241.517 345.87 242.066 350.355 242.066C354.841 242.066 357.91 241.517 359.562 239.459C360.388 238.499 360.743 237.127 360.743 235.207C360.743 233.286 360.329 231.915 359.562 230.817C357.91 228.897 354.841 228.211 350.355 228.211C345.87 228.211 342.801 228.76 341.148 230.817C340.381 231.915 339.968 233.286 339.968 235.207Z" fill="#040000"/>
<path d="M373.667 234.933H388.658V208.183H394.678V234.933H409.846V247.141H373.667V234.933ZM391.727 191.037C388.776 200.776 382.934 210.515 374.317 213.945V201.599C383.642 196.524 388.658 183.766 388.658 163.19V157.84H394.737V163.19C394.737 183.766 399.813 196.524 409.138 201.599V213.945C400.521 210.378 394.619 200.776 391.727 191.037Z" fill="#040000"/>
<path d="M423.48 154H429.559V162.368H437.704V173.89H414.746V162.368H423.48V154ZM415.926 194.878C415.926 189.254 417.047 184.59 418.936 181.435C420.825 178.28 423.421 176.771 426.372 176.771C429.323 176.771 431.979 178.28 433.809 181.435C435.698 184.59 436.878 189.117 436.878 194.878C436.878 200.639 435.698 205.303 433.809 208.321C431.92 211.476 429.323 212.985 426.372 212.985C423.421 212.985 420.766 211.476 418.936 208.321C417.047 205.166 415.926 200.639 415.926 194.878ZM417.992 235.07C417.992 229.035 419.172 224.919 421.179 222.039C424.13 218.061 428.733 216.689 433.986 216.689C439.239 216.689 443.901 218.061 446.793 222.039C448.859 224.919 450.039 229.172 450.039 235.07C450.039 240.969 448.859 245.221 446.793 248.102C443.901 252.08 439.239 253.452 433.986 253.452C428.733 253.452 424.13 252.08 421.179 248.102C419.113 245.221 417.992 240.969 417.992 235.07ZM421.71 194.878C421.71 196.799 422.123 198.307 422.713 199.542C423.54 201.051 424.838 202.011 426.372 202.011C427.907 202.011 429.146 201.051 430.032 199.542C430.622 198.307 431.035 196.799 431.035 194.878C431.035 192.958 430.622 191.449 430.032 190.214C429.205 188.705 427.907 187.882 426.372 187.882C424.838 187.882 423.599 188.705 422.713 190.214C422.123 191.449 421.71 192.958 421.71 194.878ZM424.071 235.07C424.071 236.579 424.425 237.814 425.133 238.637C426.786 240.694 429.973 241.517 433.986 241.517C437.999 241.517 441.245 240.694 442.839 238.637C443.547 237.677 443.96 236.579 443.96 235.07C443.96 233.561 443.547 232.327 442.839 231.367C441.245 229.309 437.999 228.486 433.986 228.486C429.973 228.486 426.786 229.309 425.133 231.367C424.425 232.327 424.071 233.561 424.071 235.07ZM437.645 177.045H443.075V156.881H449.154V215.591H443.075V206.538H437.645V195.152H443.075V188.568H437.645V177.183V177.045Z" fill="#040000"/>
<path d="M483.68 169.227V157.842H489.641V202.423H469.397V157.842H475.358V169.227H483.739H483.68ZM477.778 240.832H502.803V252.218H471.699V224.508H496.31V219.296H471.699V207.91H502.33V235.62H477.719V240.695L477.778 240.832ZM483.68 180.75H475.299V191.038H483.68V180.75ZM496.31 204.207V156.744H502.389V204.207H496.31Z" fill="#040000"/>
<path d="M529.303 205.578H510.771V157.842H531.014V170.05H516.791V193.507H530.955C534.319 193.507 536.326 192.41 537.683 190.078V156.744H543.762V210.654H537.683V201.463C536.326 204.207 533.847 205.578 529.244 205.578H529.303ZM512.659 232.602C512.659 225.743 514.194 220.942 516.436 217.787C519.623 213.26 524.345 211.888 528.653 211.888C532.962 211.888 537.742 213.26 540.87 217.787C543.172 220.942 544.707 225.88 544.707 232.602C544.707 239.323 543.231 244.399 540.87 247.554C537.742 251.943 533.021 253.315 528.653 253.315C524.286 253.315 519.623 251.943 516.436 247.554C514.194 244.399 512.659 239.46 512.659 232.602ZM518.738 232.602C518.738 234.934 519.269 236.58 520.273 237.952C522.161 240.421 525.525 241.244 528.712 241.244C531.9 241.244 535.264 240.421 537.152 237.952C538.097 236.58 538.687 234.934 538.687 232.602C538.687 230.27 538.097 228.624 537.152 227.389C535.264 224.783 531.9 224.097 528.712 224.097C525.525 224.097 522.22 224.783 520.273 227.389C519.269 228.761 518.738 230.407 518.738 232.602Z" fill="#040000"/>
<path d="M595.995 183.356H601.778V195.565H595.995V224.646H589.916V210.379C588.499 212.986 586.079 214.358 581.594 214.358H562.708V202.149H568.373V181.161H574.452V202.149H583.246C586.61 202.149 588.558 201.052 589.916 198.857V156.744H595.995V183.356ZM579.233 169.913H564.36V157.704H585.312V178.692C585.312 183.905 585.135 189.666 584.722 194.33H578.761C579.056 189.666 579.233 184.179 579.233 179.241V169.913ZM565.718 252.218V221.079H571.797V239.872H596.703V252.081H565.718V252.218Z" fill="#040000"/>
<path d="M611.693 232.739H625.327C628.632 232.739 631.052 231.504 632.35 228.898V156.744H638.429V251.258H632.35V240.284C630.993 243.439 627.983 244.947 624.205 244.947H605.673V195.016H619.189V170.599H605.673V158.39H625.209V207.362H611.693V232.739Z" fill="#040000"/>
<path d="M666.877 156.744V251.258H660.798V156.744H666.877Z" fill="#040000"/>
<path d="M687.77 181.573C687.77 172.519 689.009 165.66 691.311 161.271C693.14 157.841 695.619 156.058 698.511 156.058C701.403 156.058 703.941 157.841 705.711 161.271C708.013 165.66 709.253 172.519 709.253 181.573C709.253 190.626 708.013 197.485 705.711 201.874C703.882 205.304 701.403 207.087 698.511 207.087C695.619 207.087 693.081 205.304 691.311 201.874C689.009 197.485 687.77 190.489 687.77 181.573ZM690.602 213.946H721.234V252.218H690.602V213.946ZM693.73 181.573C693.73 186.374 694.321 190.077 695.324 192.272C696.091 194.055 697.213 194.879 698.57 194.879C699.928 194.879 700.99 194.055 701.816 192.272C702.819 189.94 703.41 186.237 703.41 181.573C703.41 176.909 702.819 173.068 701.816 170.873C701.049 169.09 699.928 168.129 698.57 168.129C697.213 168.129 696.15 169.09 695.324 170.873C694.321 173.068 693.73 176.909 693.73 181.573ZM696.681 226.017V240.146H715.214V226.017H696.681ZM715.214 209.556V156.607H721.293V209.556H715.214Z" fill="#040000"/>
<path d="M740.592 244.947H729.674V158.39H744.547V170.599H735.576V232.739H741.773C744.724 232.739 746.967 231.779 748.265 229.447V157.293H754.167V192.958H757.295V156.744H763.197V251.258H757.295V205.304H754.167V250.16H748.265V240.969C746.908 243.576 744.252 244.947 740.592 244.947Z" fill="#040000"/>
<path d="M781.847 215.865H817.967V228.074H802.858V252.628H796.779V228.074H781.788V215.865H781.847ZM783.854 157.84H815.96V170.049H802.917C803.389 184.589 809.291 192.683 816.315 195.563V207.772C809.35 205.303 803.448 199.13 799.848 189.528C796.307 199.13 790.346 205.303 783.382 207.772V195.563C790.346 192.683 796.248 184.589 796.72 170.049H783.854V157.84Z" fill="#040000"/>
<path d="M839.273 179.24V190.762H829.948V201.051H837.384C840.099 201.051 841.87 199.953 843.168 197.621V157.155H848.893V179.103H852.021V156.606H857.805V214.768H852.021V191.448H848.893V214.356H843.168V208.458C841.811 211.201 839.804 212.436 835.732 212.436H824.105V157.703H839.804V169.089H829.948V179.103H839.273V179.24ZM851.785 231.503H826.466V219.295H857.864V252.765H851.785V231.503Z" fill="#040000"/>
<path d="M909.566 183.356H915.35V195.565H909.566V224.646H903.487V210.379C902.07 212.986 899.651 214.358 895.165 214.358H876.279V202.149H881.945V181.161H888.024V202.149H896.818C900.182 202.149 902.129 201.052 903.487 198.857V156.744H909.566V183.356ZM892.804 169.913H877.931V157.704H898.883V178.692C898.883 183.905 898.706 189.666 898.293 194.33H892.332C892.627 189.666 892.804 184.179 892.804 179.241V169.913ZM879.289 252.218V221.079H885.368V239.872H910.274V252.081H879.289V252.218Z" fill="#040000"/>
<path d="M925.264 232.739H938.898C942.203 232.739 944.622 231.504 945.921 228.898V156.744H952V251.258H945.921V240.284C944.622 243.439 941.554 244.947 937.776 244.947H919.244V195.016H932.76V170.599H919.244V158.39H938.78V207.362H925.264V232.739Z" fill="#040000"/>
</mask>
<g mask="url(#mask0_147_135)">
<rect x="-50" y="-49" width="1236" height="415" fill="white"/>
</g>
</svg>
