<svg width="18" height="18" viewBox="0 0 18 18" fill="none" xmlns="http://www.w3.org/2000/svg">
<g clip-path="url(#clip0_6281_270)">
<mask id="mask0_6281_270" style="mask-type:luminance" maskUnits="userSpaceOnUse" x="0" y="0" width="18" height="18">
<path d="M18 0H0V18H18V0Z" fill="white"/>
</mask>
<g mask="url(#mask0_6281_270)">
<mask id="mask1_6281_270" style="mask-type:luminance" maskUnits="userSpaceOnUse" x="0" y="0" width="18" height="18">
<path d="M16 0H2C0.89543 0 0 0.89543 0 2V16C0 17.1046 0.89543 18 2 18H16C17.1046 18 18 17.1046 18 16V2C18 0.89543 17.1046 0 16 0Z" fill="white"/>
</mask>
<g mask="url(#mask1_6281_270)">
<path d="M16 0H2C0.89543 0 0 0.89543 0 2V16C0 17.1046 0.89543 18 2 18H16C17.1046 18 18 17.1046 18 16V2C18 0.89543 17.1046 0 16 0Z" fill="#040000"/>
<path d="M3.75 9.75L6.75 12.75L14.25 5.25" stroke="white" stroke-width="1.5" stroke-linecap="round" stroke-linejoin="round"/>
</g>
</g>
</g>
<defs>
<clipPath id="clip0_6281_270">
<rect width="18" height="18" fill="white"/>
</clipPath>
</defs>
</svg>
